<?xml version="1.0" encoding="iso-8859-1"?>
<!-- Generator: Adobe Illustrator 19.0.0, SVG Export Plug-In . SVG Version: 6.00 Build 0)  -->
<svg version="1.1" id="Layer_1" width="86" height="71" xmlns="http://www.w3.org/2000/svg" xmlns:xlink="http://www.w3.org/1999/xlink" x="0px" y="0px"
	 viewBox="0 0 491.525 491.525" style="enable-background:new 0 0 491.525 491.525;" xml:space="preserve" fill="#62e0d9">
<g>
	<g>
		<path d="M450.564,348.165c-19.033,0-34.927,13.104-39.506,30.72h-32.174v-90.249c42.657-8.929,71.68-41.402,71.68-83.831
			c0-36.375-23.23-68.81-56.66-81.115c3.05-10.105,4.14-20.6,3.41-32.27c-3.07-50.005-47.59-91.015-99.24-91.415
			c-0.27,0-0.53-0.005-0.79-0.005c-40.86,0-77.4,24.44-92.66,60.205c-15.1-11.2-34.17-16.655-53.59-14.79
			c-27.94,2.62-52.38,21.225-63.77,48.56c-5.42,12.99-4.7,27.42-3.46,36.22c-26.26,15.365-42.84,43.84-42.84,74.61
			c0,41.651,29.531,74.539,71.68,83.718v90.362H80.469c-4.579-17.616-20.473-30.72-39.506-30.72c-22.59,0-40.96,18.375-40.96,40.96
			c0,22.585,18.37,40.96,40.96,40.96c19.033,0,34.927-13.104,39.506-30.72h52.654V291.019c1.229,0.038,2.427,0.156,3.67,0.156h47.53
			v119.884c-17.618,4.579-30.72,20.477-30.72,39.506c0,22.585,18.37,40.96,40.96,40.96s40.96-18.375,40.96-40.96
			c0-19.029-13.102-34.927-30.72-39.506V291.175h81.92v119.884c-17.618,4.579-30.72,20.477-30.72,39.506
			c0,22.585,18.37,40.96,40.96,40.96c22.59,0,40.96-18.375,40.96-40.96c0-19.029-13.102-34.927-30.72-39.506V291.175h47.53
			c1.246,0,2.44-0.114,3.67-0.151v108.341h52.654c4.579,17.616,20.472,30.72,39.506,30.72c22.59,0,40.96-18.375,40.96-40.96
			C491.522,366.54,473.154,348.165,450.564,348.165z M40.964,409.605c-11.29,0-20.48-9.185-20.48-20.48
			c0-11.295,9.19-20.48,20.48-20.48c11.29,0,20.48,9.185,20.48,20.48C61.444,400.42,52.253,409.605,40.964,409.605z
			 M215.043,450.565c0,11.295-9.19,20.48-20.48,20.48s-20.48-9.185-20.48-20.48c0-11.295,9.19-20.48,20.48-20.48
			S215.043,439.27,215.043,450.565z M317.444,450.565c0,11.295-9.19,20.48-20.48,20.48c-11.29,0-20.48-9.185-20.48-20.48
			c0-11.295,9.19-20.48,20.48-20.48C308.254,430.085,317.444,439.27,317.444,450.565z M354.733,270.695h-217.94
			c-43.66,0-75.35-27.71-75.35-65.89c0-25.545,14.97-49.01,38.15-59.785l7.77-3.645l-2.2-8.295c-0.05-0.175-4.61-17.765,1-31.225
			c8.48-20.325,26.4-34.14,46.79-36.05c1.84-0.17,3.67-0.255,5.49-0.255c16.69,0,32.51,7.135,43.12,19.675l13.27,15.675l4.54-20.03
			c7.94-35.08,40.64-60.39,77.91-60.39c0.21,0,0.42,0.005,0.63,0.005c41.11,0.315,76.53,32.705,78.96,72.2
			c0.79,12.64-0.99,22.98-5.74,33.515l-5.21,11.53l12.36,2.69c30.02,6.535,51.8,33.61,51.8,64.385
			C430.084,243.6,399.094,270.695,354.733,270.695z M450.564,409.605c-11.29,0-20.48-9.185-20.48-20.48
			c0-11.295,9.19-20.48,20.48-20.48c11.29,0,20.48,9.185,20.48,20.48C471.044,400.42,461.853,409.605,450.564,409.605z"/>
	</g>
</g>
<g>
</g>
<g>
</g>
<g>
</g>
<g>
</g>
<g>
</g>
<g>
</g>
<g>
</g>
<g>
</g>
<g>
</g>
<g>
</g>
<g>
</g>
<g>
</g>
<g>
</g>
<g>
</g>
<g>
</g>
</svg>
