<?xml version="1.0" encoding="iso-8859-1"?>
<!-- Generator: Adobe Illustrator 16.0.0, SVG Export Plug-In . SVG Version: 6.00 Build 0)  -->
<!DOCTYPE svg PUBLIC "-//W3C//DTD SVG 1.1//EN" "http://www.w3.org/Graphics/SVG/1.1/DTD/svg11.dtd">
<svg version="1.1" id="Capa_1" xmlns="http://www.w3.org/2000/svg" xmlns:xlink="http://www.w3.org/1999/xlink" x="0px" y="0px"
	 width="78" height="88" viewBox="0 0 37.627 37.628" style="enable-background:new 0 0 37.627 37.628;"
	 xml:space="preserve">
<g>
	<path fill="#62e0d9"  d="M30.815,27.002c-1.504,0-2.854,0.629-3.819,1.633l-2.231-2.23c2.254-1.77,3.709-4.512,3.709-7.59
		c0-2.729-1.144-5.189-2.968-6.947l2.233-2.233c0.869,0.618,1.927,0.991,3.074,0.991c2.935,0,5.313-2.377,5.313-5.311
		s-2.379-5.311-5.313-5.311c-2.934,0-5.312,2.377-5.312,5.311c0,1.424,0.566,2.709,1.479,3.662l-2.232,2.234
		c-1.641-1.281-3.697-2.054-5.934-2.054c-2.286,0-4.385,0.802-6.041,2.133l-2.213-2.213c0.966-0.961,1.565-2.291,1.565-3.764
		C12.124,2.378,9.746,0,6.812,0S1.5,2.379,1.5,5.313s2.378,5.311,5.312,5.311c1.101,0,2.124-0.334,2.972-0.907l2.239,2.238
		c-1.769,1.751-2.868,4.179-2.868,6.858c0,3.033,1.408,5.74,3.602,7.509l-2.214,2.216c-0.959-0.949-2.275-1.535-3.73-1.535
		c-2.934,0-5.312,2.377-5.312,5.312c0,2.934,2.378,5.311,5.312,5.311s5.312-2.377,5.312-5.311c0-1.117-0.348-2.15-0.937-3.006
		l2.354-2.354l-0.17-0.17c1.551,1.063,3.424,1.687,5.441,1.687c1.88,0,3.632-0.55,5.117-1.482l2.437,2.438
		c-0.542,0.832-0.863,1.82-0.863,2.891c0,2.935,2.377,5.312,5.312,5.312c2.936,0,5.312-2.377,5.312-5.312
		C36.127,29.383,33.75,27.002,30.815,27.002z M30.815,2.034c0.957,0,1.73,0.578,1.73,1.67c0,1.093-0.773,2.283-1.73,2.283
		s-1.731-1.19-1.731-2.283C29.083,2.612,29.858,2.034,30.815,2.034z M27.461,7.788c0-0.463,0.398-1.034,0.891-1.268l1.09-0.518
		l0.756,1.575l0.386-1.049c0.076,0.015,0.151,0.033,0.231,0.033c0.078,0,0.152-0.021,0.23-0.033l0.367,0.996l0.738-1.539
		l1.123,0.533c0.49,0.231,0.893,0.805,0.893,1.27v0.804h-6.705V7.788z M6.814,2.034c0.957,0,1.731,0.578,1.731,1.67
		c0,1.093-0.774,2.283-1.731,2.283s-1.731-1.19-1.731-2.283C5.083,2.612,5.857,2.034,6.814,2.034z M10.167,8.593H3.462V7.787
		c0-0.463,0.4-1.034,0.891-1.268L5.442,6l0.756,1.576l0.386-1.049C6.661,6.541,6.736,6.56,6.815,6.56s0.154-0.021,0.231-0.033
		l0.367,0.996l0.74-1.539l1.123,0.533c0.49,0.231,0.891,0.805,0.891,1.27V8.593z M6.814,29.034c0.957,0,1.731,0.577,1.731,1.67
		c0,1.094-0.774,2.282-1.731,2.282s-1.731-1.188-1.731-2.282C5.083,29.611,5.857,29.034,6.814,29.034z M10.167,35.592H3.462v-0.805
		c0-0.463,0.4-1.035,0.891-1.268l1.089-0.521l0.756,1.576l0.386-1.05c0.076,0.015,0.152,0.033,0.231,0.033s0.154-0.02,0.231-0.033
		l0.367,0.996l0.74-1.539l1.123,0.533c0.49,0.232,0.891,0.805,0.891,1.271V35.592z M17.207,10.603
		c-1.392,1.16-2.452,2.615-3.106,4.24h-2.65C12.621,12.679,14.717,11.089,17.207,10.603z M10.445,18.813
		c0-0.939,0.162-1.84,0.448-2.682h2.783c-0.219,0.848-0.335,1.729-0.335,2.627c0,0.824,0.102,1.633,0.286,2.416H10.79
		C10.568,20.424,10.445,19.633,10.445,18.813z M11.293,22.461h2.727c0.669,1.773,1.812,3.357,3.342,4.586
		C14.686,26.577,12.45,24.833,11.293,22.461z M18.17,26.025c-1.211-0.973-2.145-2.192-2.748-3.562h2.748V26.025z M18.17,21.174
		h-3.211c-0.212-0.779-0.33-1.588-0.33-2.416c0-0.904,0.146-1.783,0.398-2.627h3.143V21.174z M18.17,14.843h-2.648
		c0.604-1.283,1.501-2.429,2.648-3.354V14.843z M27.184,18.813c0,0.82-0.123,1.611-0.346,2.361H24
		c0.186-0.783,0.285-1.592,0.285-2.416c0-0.898-0.115-1.779-0.334-2.627h2.781C27.022,16.974,27.184,17.874,27.184,18.813z
		 M26.18,14.843h-2.65c-0.653-1.625-1.715-3.08-3.106-4.24C22.912,11.089,25.008,12.679,26.18,14.843z M19.458,11.491
		c1.147,0.924,2.045,2.068,2.647,3.354h-2.647V11.491z M19.458,16.132h3.144C22.854,16.976,23,17.855,23,18.759
		c0,0.828-0.117,1.636-0.33,2.416h-3.211V16.132z M19.458,22.461h2.748c-0.604,1.371-1.537,2.592-2.748,3.564V22.461z
		 M23.608,22.461h2.728c-1.153,2.371-3.392,4.115-6.067,4.586C21.795,25.818,22.94,24.234,23.608,22.461z M30.815,29.034
		c0.957,0,1.73,0.577,1.73,1.67c0,1.094-0.773,2.282-1.73,2.282s-1.731-1.188-1.731-2.282
		C29.083,29.611,29.858,29.034,30.815,29.034z M34.167,35.592h-6.705v-0.805c0-0.463,0.399-1.035,0.892-1.268l1.09-0.521
		l0.756,1.576l0.387-1.05c0.076,0.015,0.15,0.033,0.23,0.033c0.078,0,0.154-0.02,0.229-0.033l0.367,0.996l0.739-1.539l1.123,0.533
		c0.49,0.232,0.892,0.805,0.892,1.271V35.592z"/>
</g>
<g>
</g>
<g>
</g>
<g>
</g>
<g>
</g>
<g>
</g>
<g>
</g>
<g>
</g>
<g>
</g>
<g>
</g>
<g>
</g>
<g>
</g>
<g>
</g>
<g>
</g>
<g>
</g>
<g>
</g>
</svg>
