<?xml version="1.0" encoding="iso-8859-1"?>
<!-- Generator: Adobe Illustrator 18.0.0, SVG Export Plug-In . SVG Version: 6.00 Build 0)  -->
<!DOCTYPE svg PUBLIC "-//W3C//DTD SVG 1.1//EN" "http://www.w3.org/Graphics/SVG/1.1/DTD/svg11.dtd">
<svg version="1.1" id="Capa_1" xmlns="http://www.w3.org/2000/svg" xmlns:xlink="http://www.w3.org/1999/xlink" x="0px" y="0px"
	 viewBox="0 0 460 460" style="enable-background:new 0 0 460 460;" xml:space="preserve">
<g id="XMLID_1122_">
	<path id="XMLID_1123_" d="M228.736,272.967c-4.188,0-7.582,3.394-7.582,7.582v32.613c0,4.188,3.395,7.582,7.582,7.582
		s7.582-3.394,7.582-7.582v-32.613C236.319,276.361,232.924,272.967,228.736,272.967z"/>
	<path id="XMLID_1245_" d="M140.275,192.088H64.451V95.281c17.284-3.522,30.33-18.84,30.33-37.149
		c0-20.905-17.007-37.912-37.912-37.912S18.956,37.227,18.956,58.132c0,18.309,13.046,33.627,30.33,37.149V199.67
		c0,4.188,3.395,7.582,7.582,7.582h82.753v15.708h-25.03c-4.188,0-7.582,3.394-7.582,7.582v52.534H46.758
		c-4.188,0-7.582,3.394-7.582,7.582c0,4.188,3.395,7.582,7.582,7.582h60.251v34.662c0,20.869,16.978,37.848,37.848,37.848h35.898
		c-0.027,0.259-0.041,0.521-0.041,0.787v32.857H94.017c-3.522-17.284-18.84-30.33-37.149-30.33
		c-20.905,0-37.912,17.007-37.912,37.912s17.007,37.912,37.912,37.912c18.309,0,33.627-13.046,37.149-30.33h94.279
		c4.188,0,7.582-3.394,7.582-7.582v-40.44c0-0.266-0.014-0.528-0.041-0.787h116.778c20.869,0,37.848-16.978,37.848-37.848v-34.662
		h22.339v116.264h-56.367c-3.522-17.284-18.84-30.33-37.149-30.33c-20.905,0-37.912,17.007-37.912,37.912S258.381,460,279.286,460
		c18.309,0,33.627-13.046,37.149-30.33h63.95c4.188,0,7.582-3.394,7.582-7.582V290.659c0-4.188-3.395-7.582-7.582-7.582h-29.921V260
		h80.47c4.188,0,7.582-3.394,7.582-7.582c0-4.188-3.395-7.582-7.582-7.582h-80.47v-14.292c0-4.188-3.395-7.582-7.582-7.582h-25.03
		v-15.708h85.281c4.188,0,7.582-3.394,7.582-7.582v-33.62c17.284-3.522,30.33-18.84,30.33-37.149
		c0-20.905-17.007-37.912-37.912-37.912s-37.912,17.007-37.912,37.912c0,18.309,13.046,33.627,30.33,37.149v26.038h-77.699v-9.92
		c0-49.139-39.977-89.115-89.115-89.115c-30.349,0-57.197,15.253-73.297,38.492v-86.05h76.587
		c3.522,17.284,18.84,30.33,37.149,30.33c20.905,0,37.912-17.007,37.912-37.912S290.081,0,269.176,0
		c-18.309,0-33.627,13.046-37.149,30.33h-84.17c-4.188,0-7.582,3.394-7.582,7.582V192.088z M380.385,128.901
		c0-12.543,10.204-22.747,22.747-22.747c12.543,0,22.747,10.205,22.747,22.747s-10.204,22.747-22.747,22.747
		C390.589,151.648,380.385,141.444,380.385,128.901z M269.176,15.165c12.543,0,22.747,10.205,22.747,22.747
		s-10.204,22.747-22.747,22.747c-12.543,0-22.747-10.205-22.747-22.747S256.633,15.165,269.176,15.165z M34.121,58.132
		c0-12.543,10.204-22.747,22.747-22.747s22.747,10.205,22.747,22.747S69.411,80.879,56.868,80.879S34.121,70.674,34.121,58.132z
		 M56.868,434.725c-12.543,0-22.747-10.205-22.747-22.747c0-12.543,10.204-22.747,22.747-22.747s22.747,10.205,22.747,22.747
		C79.615,424.521,69.411,434.725,56.868,434.725z M154.786,182.168c0-40.776,33.174-73.95,73.95-73.95s73.95,33.174,73.95,73.95
		v40.793h-20.68v-37.698c0-29.373-23.897-53.27-53.27-53.27s-53.27,23.897-53.27,53.27v37.698h-20.68V182.168z M266.841,222.961
		h-76.21v-37.698c0-21.012,17.094-38.106,38.105-38.106s38.105,17.094,38.105,38.106V222.961z M335.299,332.904
		c0,12.507-10.176,22.683-22.683,22.683H144.857c-12.508,0-22.683-10.176-22.683-22.683v-94.778h213.125V332.904z M279.286,444.835
		c-12.543,0-22.747-10.205-22.747-22.747c0-12.543,10.204-22.747,22.747-22.747c12.543,0,22.747,10.205,22.747,22.747
		C302.033,434.63,291.829,444.835,279.286,444.835z"/>
</g>
<g>
</g>
<g>
</g>
<g>
</g>
<g>
</g>
<g>
</g>
<g>
</g>
<g>
</g>
<g>
</g>
<g>
</g>
<g>
</g>
<g>
</g>
<g>
</g>
<g>
</g>
<g>
</g>
<g>
</g>
</svg>
