<?xml version="1.0" encoding="iso-8859-1"?>
<!-- Generator: Adobe Illustrator 19.0.0, SVG Export Plug-In . SVG Version: 6.00 Build 0)  -->
<svg version="1.1" id="Layer_1" xmlns="http://www.w3.org/2000/svg" xmlns:xlink="http://www.w3.org/1999/xlink" x="0px" y="0px"
	 viewBox="0 0 463.968 463.968" style="enable-background:new 0 0 463.968 463.968;" xml:space="preserve">
<g>
	<polyline style="fill:#F24125;" points="305.761,151.319 347.69,78.531 391.882,103.988 371.916,138.649 327.724,113.192 	"/>
	<path style="fill:#FCBC1D;" d="M354.874,167.578c16.02,16,28.89,35.16,37.56,56.48c8.07,19.84,12.51,41.54,12.51,64.27
		c0,12.3-1.3,24.3-3.78,35.86c-7.12,33.32-23.97,63.03-47.44,86.02c-11.33,11.11-24.22,20.66-38.3,28.27
		c-24.13,13.07-51.76,20.49-81.12,20.49c-2.86,0-5.7-0.07-8.52-0.21c-53.27-2.62-100.11-29.67-129.57-70.17
		c-20.47-28.15-32.55-62.8-32.55-100.26c0-1.87,0.03-3.73,0.09-5.59c1.23-38.28,15.08-73.38,37.51-101.27
		c28.71-35.7,71.5-59.6,119.93-63.28c4.33-0.33,8.7-0.5,13.11-0.5c38.41,0,73.85,12.69,102.37,34.1
		C343.114,156.618,349.194,161.898,354.874,167.578z"/>
	<path style="opacity:0.25;enable-background:new    ;" d="M248.912,449.682c-19.96-7.05-38.22-17.72-53.98-31.21
		c-36.59-31.3-59.78-77.8-59.78-129.72c0-46.04,18.24-87.83,47.88-118.52c16.33-16.91,36.12-30.46,58.23-39.5
		c9.22-3.765,18.846-6.738,28.788-8.857c-11.529-2.458-23.483-3.763-35.745-3.763c-22.84,0-44.62,4.49-64.53,12.62
		c-22.11,9.04-41.9,22.59-58.23,39.5c-29.64,30.69-47.88,72.48-47.88,118.52c0,51.92,23.19,98.42,59.78,129.72
		c15.76,13.49,34.02,24.16,53.98,31.21c17.79,6.29,36.94,9.71,56.88,9.71c12.255,0,24.208-1.3,35.734-3.756
		C262.818,454.096,255.763,452.104,248.912,449.682z"/>
	<g>
		<path style="opacity:0.25;enable-background:new    ;" d="M314.393,248.228c-2.442-11.871,1.146-23.136,8.287-28.55
			c1.945-1.466,4.15-2.506,6.573-3.009c11.323-2.324,23.003,8.032,26.109,23.138c3.098,15.097-3.545,29.224-14.867,31.548
			c-3.62,0.752-7.296,0.191-10.692-1.404C322.575,266.559,316.51,258.492,314.393,248.228z"/>
		<path style="fill:#FCBC1D;" d="M314.393,248.228c-2.442-11.871,1.146-23.136,8.287-28.55c7.227,3.393,13.309,11.463,15.409,21.724
			c2.442,11.872-1.146,23.136-8.287,28.55C322.575,266.559,316.51,258.492,314.393,248.228z"/>
		<path style="fill:#333333;" d="M337.283,276.686c-3.228,0-6.488-0.743-9.607-2.208c-2.499-1.174-3.573-4.152-2.399-6.651
			c1.174-2.5,4.153-3.573,6.651-2.4c2.512,1.18,5.122,1.539,7.55,1.034c3.904-0.801,7.216-3.72,9.335-8.219
			c2.348-4.986,2.935-11.176,1.651-17.428c-2.502-12.166-11.757-20.983-20.206-19.246c-1.624,0.337-3.165,1.046-4.568,2.104
			c-5.813,4.407-8.39,13.874-6.399,23.549c0.557,2.705-1.186,5.349-3.891,5.905c-2.714,0.558-5.349-1.187-5.904-3.89
			c-2.792-13.579,1.197-26.744,10.164-33.541c2.603-1.962,5.485-3.278,8.577-3.92c14.007-2.876,28.368,9.25,32.022,27.027
			c1.715,8.356,0.863,16.773-2.399,23.701c-3.495,7.42-9.305,12.304-16.36,13.752C340.111,276.542,338.7,276.686,337.283,276.686z"
			/>
	</g>
	<g>
		<path style="fill:#FFFFFF;" d="M355.972,211.646c-1.643,0-3.251-0.808-4.207-2.291c-6.344-9.84-13.878-18.921-22.393-26.99
			c-2.004-1.9-2.089-5.064-0.189-7.069c1.897-2.003,5.064-2.089,7.068-0.19c9.095,8.619,17.142,18.319,23.918,28.83
			c1.496,2.321,0.828,5.416-1.493,6.912C357.839,211.388,356.9,211.646,355.972,211.646z"/>
		<path style="fill:#FFFFFF;" d="M332.099,403.033c-1.336,0-2.668-0.532-3.652-1.584c-1.887-2.017-1.781-5.181,0.235-7.067
			c29.375-27.482,46.223-66.239,46.223-106.333c0-8.734-0.782-17.485-2.325-26.011c-0.492-2.717,1.313-5.319,4.029-5.811
			c2.708-0.495,5.318,1.312,5.811,4.029c1.649,9.112,2.485,18.463,2.485,27.792c0,42.851-18.002,84.27-49.391,113.636
			C334.551,402.586,333.323,403.033,332.099,403.033z"/>
		<path style="fill:#FFFFFF;" d="M311.068,419.495c-1.637,0-3.241-0.803-4.199-2.278c-1.503-2.316-0.845-5.413,1.472-6.916
			c2.554-1.658,5.086-3.416,7.525-5.226c2.219-1.646,5.35-1.182,6.995,1.036c1.646,2.218,1.182,5.35-1.036,6.995
			c-2.606,1.935-5.312,3.813-8.039,5.583C312.945,419.234,312.001,419.495,311.068,419.495z"/>
	</g>
	<path style="fill:#333333;" d="M234.304,463.968c-96.848,0-175.64-78.792-175.64-175.64s78.792-175.64,175.64-175.64
		s175.64,78.792,175.64,175.64S331.152,463.968,234.304,463.968z M234.304,122.688c-91.334,0-165.64,74.306-165.64,165.64
		s74.306,165.64,165.64,165.64s165.64-74.306,165.64-165.64S325.638,122.688,234.304,122.688z"/>
	<path style="opacity:0.25;enable-background:new    ;" d="M262.817,294.849c0,17.89-14.51,32.4-32.4,32.4
		c-3.51,0-6.89-0.56-10.06-1.6c12.96-4.23,22.33-16.42,22.33-30.8s-9.37-26.57-22.33-30.8c3.17-1.04,6.55-1.6,10.06-1.6
		C248.307,262.449,262.817,276.959,262.817,294.849z"/>
	<g>
		<path style="fill:#FCBC1D;" d="M158.159,371.712c-1.85,2.42-4.17,4.36-6.95,5.68c-12.11,5.75-28.15-2.7-35.82-18.86
			s-4.07-33.93,8.04-39.68c1.83-0.87,3.75-1.41,5.72-1.65c11.04-1.36,23.58,6.79,30.1,20.52
			C165.159,350.182,164.379,363.582,158.159,371.712z"/>
		<path style="opacity:0.25;enable-background:new    ;" d="M158.159,371.712c-11.05,1.37-23.59-6.79-30.1-20.51
			c-5.91-12.46-5.13-25.87,1.09-34c11.04-1.36,23.58,6.79,30.1,20.52C165.159,350.182,164.379,363.582,158.159,371.712z"/>
		<path style="fill:#333333;" d="M143.043,384.214c-4.506,0-9.175-1.208-13.737-3.611c-7.715-4.063-14.261-11.14-18.432-19.928
			s-5.515-18.334-3.784-26.88c1.838-9.075,6.878-15.984,14.192-19.456s15.853-3.008,24.047,1.306
			c7.715,4.063,14.261,11.14,18.432,19.928c1.184,2.495,0.122,5.477-2.373,6.661c-2.496,1.184-5.478,0.121-6.661-2.373
			c-3.25-6.848-8.242-12.305-14.058-15.367c-5.338-2.811-10.7-3.209-15.099-1.121s-7.482,6.494-8.679,12.407
			c-1.305,6.441-0.233,13.759,3.017,20.607s8.242,12.306,14.057,15.368c5.338,2.812,10.701,3.209,15.1,1.121
			s7.481-6.495,8.679-12.407c0.548-2.706,3.185-4.455,5.893-3.908c2.706,0.548,4.456,3.187,3.908,5.893
			c-1.837,9.075-6.878,15.984-14.192,19.457C150.112,383.449,146.629,384.214,143.043,384.214z"/>
	</g>
	<path style="fill:#333333;" d="M230.42,332.245c-20.621,0-37.397-16.776-37.397-37.397c0-2.761,2.239-5,5-5s5,2.239,5,5
		c0,15.107,12.291,27.397,27.397,27.397c15.107,0,27.397-12.291,27.397-27.397s-12.29-27.397-27.397-27.397
		c-4.976,0-9.846,1.346-14.084,3.892c-2.367,1.422-5.438,0.656-6.861-1.711c-1.422-2.367-0.656-5.438,1.711-6.861
		c5.793-3.48,12.444-5.32,19.234-5.32c20.621,0,37.397,16.776,37.397,37.397S251.041,332.245,230.42,332.245z"/>
	<path style="fill:#333333;" d="M228.422,212.86c-4.52,0-9.039-1.72-12.48-5.161c-1.953-1.953-1.953-5.119,0-7.071
		s5.118-1.952,7.071,0c2.981,2.982,7.834,2.982,10.818,0c2.981-2.982,2.981-7.835-0.001-10.818c-2.98-2.981-7.835-2.983-10.817,0
		c-1.953,1.952-5.118,1.952-7.071,0c-1.953-1.953-1.953-5.119,0-7.071c6.882-6.881,18.079-6.88,24.96,0
		c6.881,6.882,6.881,18.079,0.001,24.96C237.462,211.14,232.942,212.86,228.422,212.86z"/>
	<path style="fill:#333333;" d="M290.81,393.231c-4.52,0-9.039-1.72-12.479-5.161c-1.953-1.953-1.953-5.118-0.001-7.071
		c1.953-1.953,5.118-1.954,7.071,0c2.983,2.983,7.838,2.982,10.819,0s2.981-7.835-0.001-10.818s-7.836-2.98-10.818,0
		c-1.951,1.952-5.118,1.953-7.071,0c-1.952-1.953-1.952-5.118,0.001-7.071c6.882-6.882,18.08-6.88,24.96,0
		c6.881,6.882,6.881,18.079,0.001,24.96C299.85,391.511,295.331,393.231,290.81,393.231z"/>
	<polygon style="fill:#F2F2F2;" points="161.134,167.457 150.404,178.177 120.484,148.257 139.004,145.337 	"/>
	<path style="fill:#F2F2F2;" d="M150.404,178.177l-29.24,29.24l-29.92-29.92l-34.54-34.54c-1.63-1.63-3.17-3.33-4.61-5.1
		c-10.07-12.35-15.52-27.92-15.24-44c9.18-0.15,18.21,1.56,26.56,4.94c6.26,2.53,12.14,6,17.43,10.31c1.77,1.44,3.47,2.98,5.1,4.61
		l34.54,34.54L150.404,178.177z"/>
	<polygon style="opacity:0.25;enable-background:new    ;" points="80.844,109.107 121.164,207.417 52.094,137.857 	"/>
	<polygon style="fill:#F2F2F2;" points="121.164,207.417 110.444,218.147 88.314,196.017 91.244,177.497 	"/>
	<polygon style="opacity:0.25;enable-background:new    ;" points="121.164,207.417 110.444,218.147 88.314,196.017 91.244,177.497 
			"/>
	<path style="fill:#333333;" d="M110.444,223.146c-1.326,0-2.598-0.527-3.536-1.464l-22.13-22.13
		c-1.131-1.132-1.653-2.736-1.403-4.317l2.93-18.52c0.294-1.857,1.605-3.393,3.393-3.974c1.788-0.581,3.751-0.11,5.081,1.22
		l29.92,29.92c1.952,1.952,1.953,5.117,0.001,7.069l-10.72,10.73C113.042,222.618,111.771,223.146,110.444,223.146
		C110.446,223.146,110.445,223.146,110.444,223.146z M93.65,194.282l16.792,16.792l3.652-3.656l-19.446-19.446L93.65,194.282z"/>
	<path style="fill:#333333;" d="M150.404,183.177c-1.28,0-2.559-0.488-3.536-1.464l-29.92-29.92c-1.33-1.33-1.801-3.294-1.219-5.083
		s2.118-3.099,3.976-3.392l18.52-2.92c1.582-0.251,3.183,0.272,4.313,1.402l22.13,22.12c0.938,0.938,1.465,2.21,1.465,3.537
		s-0.527,2.599-1.466,3.537l-10.73,10.72C152.962,182.689,151.683,183.177,150.404,183.177z M130.964,151.666l19.441,19.441
		l3.655-3.652l-16.792-16.783L130.964,151.666z"/>
	
		<rect x="130.784" y="172.119" transform="matrix(-0.7071 -0.7071 0.7071 -0.7071 95.4715 425.135)" style="fill:#333333;" width="10" height="41.352"/>
	<g id="XMLID_43_">
		<g>
			<path style="fill:#F24125;" d="M80.844,109.107l-28.75,28.75c-10.07-12.35-15.52-27.92-15.24-44c9.18-0.15,18.21,1.56,26.56,4.94
				C69.674,101.327,75.554,104.797,80.844,109.107z"/>
		</g>
		<g>
			<path style="fill:#333333;" d="M87.708,181.032l-34.54-34.54c-1.76-1.76-3.426-3.604-4.953-5.48
				c-10.848-13.303-16.66-30.082-16.361-47.242c0.047-2.695,2.222-4.868,4.917-4.913c9.836-0.155,19.425,1.625,28.518,5.305
				c6.749,2.727,13.045,6.451,18.712,11.068c1.872,1.523,3.715,3.19,5.477,4.951l34.54,34.541l-7.071,7.071l-34.54-34.54
				c-1.521-1.521-3.109-2.957-4.72-4.268c-4.893-3.985-10.325-7.199-16.148-9.552c-6.285-2.544-12.849-4.039-19.572-4.461
				c0.822,13.023,5.704,25.55,14.001,35.725c1.315,1.617,2.751,3.205,4.271,4.724l34.54,34.54L87.708,181.032z"/>
			
				<rect x="61.469" y="103.151" transform="matrix(-0.7071 -0.7071 0.7071 -0.7071 26.1566 257.7948)" style="fill:#333333;" width="10" height="40.659"/>
		</g>
	</g>
	<path style="fill:#333333;" d="M305.757,156.32c-0.847,0-1.704-0.215-2.491-0.668c-2.393-1.378-3.215-4.436-1.837-6.828
		l21.92-38.053c0.015-0.025,0.028-0.05,0.042-0.074c0.015-0.025,0.029-0.049,0.044-0.074l19.923-34.587
		c1.379-2.393,4.434-3.216,6.829-1.837l44.192,25.457c1.148,0.662,1.988,1.753,2.332,3.034c0.345,1.281,0.166,2.646-0.495,3.794
		l-19.967,34.661c-1.379,2.393-4.434,3.216-6.829,1.837l-39.858-22.96l-19.467,33.794
		C309.169,155.421,307.486,156.32,305.757,156.32z M334.552,111.355l35.526,20.465l14.976-25.996l-35.527-20.465L334.552,111.355z"
		/>
	<g>
		<path style="fill:#20505B;" d="M239.382,40.02l0.03,0.03c-3.96,5.08-10.14,8.34-17.08,8.34s-13.12-3.26-17.08-8.34l0.03-0.02
			c-1.46-1.86-2.63-3.98-3.42-6.26c2.94-8.48,10.99-14.57,20.47-14.57s17.54,6.09,20.46,14.58
			C242.002,36.06,240.842,38.16,239.382,40.02z"/>
		<path style="fill:#1AA5E2;" d="M243.992,26.66c0,2.49-0.42,4.89-1.2,7.12c-2.92-8.49-10.98-14.58-20.46-14.58
			c-9.48,0-17.53,6.09-20.47,14.57c-0.77-2.22-1.19-4.61-1.19-7.11c0-11.96,9.69-21.66,21.66-21.66
			C234.292,5,243.992,14.7,243.992,26.66z"/>
		<path style="fill:#1AA5E2;" d="M205.252,40.05c3.96,5.08,10.14,8.34,17.08,8.34s13.12-3.26,17.08-8.34
			c16.37,11.36,9.65,56.76,9.65,56.76c-2.07,0.43-4.14,0.81-6.22,1.13h-0.01c-2.94,0.47-5.88,0.83-8.84,1.1
			c-3.46,0.3-6.93,0.48-10.39,0.51c-0.42,0-0.85,0-1.27,0c-0.43,0-0.85,0-1.27,0c-3.47-0.03-6.93-0.21-10.39-0.51
			c-2.96-0.27-5.91-0.63-8.85-1.1c-2.08-0.32-4.16-0.7-6.22-1.13C195.602,96.81,188.882,51.41,205.252,40.05z"/>
		<path style="fill:#333333;" d="M242.917,43.556l-2.108-2.109l-1.832-1.745l0.376,0.358l-4.178-2.745l0.295-0.365l-0.021-0.017
			c1.14-1.452,2.021-3.064,2.619-4.79c0.615-1.759,0.925-3.599,0.925-5.483c0-9.186-7.474-16.66-16.66-16.66
			s-16.66,7.474-16.66,16.66c0,1.882,0.308,3.724,0.914,5.472c0.602,1.737,1.486,3.355,2.629,4.811l-7.866,6.175
			c-1.829-2.33-3.246-4.924-4.211-7.71c-0.973-2.804-1.466-5.747-1.466-8.748c0-14.7,11.959-26.66,26.66-26.66
			s26.66,11.959,26.66,26.66c0,3.012-0.498,5.963-1.48,8.771c-0.949,2.739-2.348,5.306-4.151,7.618
			c-0.121,0.162-0.253,0.318-0.387,0.459l-0.005-0.004C242.951,43.521,242.934,43.539,242.917,43.556z M235.731,36.612l0.007,0.006
			L235.731,36.612z"/>
		<path style="fill:#333333;" d="M206.586,35.408l-9.448-3.275c3.719-10.726,13.843-17.933,25.194-17.933
			c11.372,0,21.495,7.215,25.188,17.954l-9.457,3.252c-2.305-6.703-8.627-11.206-15.731-11.206
			C215.238,24.2,208.91,28.704,206.586,35.408z"/>
		<path style="fill:#333333;" d="M222.332,104.55h-1.27c-3.491-0.03-7.118-0.208-10.821-0.528c-3.173-0.29-6.263-0.674-9.208-1.144
			c-2.085-0.321-4.266-0.717-6.452-1.173c-2.051-0.428-3.618-2.089-3.925-4.163c-0.734-4.961-6.643-48.839,11.746-61.6
			c2.181-1.513,5.163-1.059,6.794,1.034c3.178,4.077,7.966,6.415,13.137,6.415c5.171,0,9.959-2.338,13.137-6.414
			c1.633-2.095,4.616-2.544,6.794-1.034c18.39,12.761,12.48,56.639,11.746,61.6c-0.308,2.075-1.877,3.737-3.931,4.164
			c-2.255,0.468-4.373,0.853-6.477,1.176c-0.032,0.005-0.063,0.009-0.096,0.014c-2.917,0.463-5.965,0.841-9.06,1.124
			c-3.725,0.323-7.352,0.5-10.801,0.53h-1.313V104.55z M200.092,92.585c0.839,0.148,1.67,0.287,2.49,0.413
			c2.752,0.439,5.617,0.795,8.544,1.063c3.424,0.297,6.789,0.462,9.979,0.489h2.497c3.148-0.027,6.513-0.192,9.958-0.491
			c2.89-0.264,5.751-0.62,8.482-1.056c0.049-0.008,0.099-0.015,0.147-0.021c0.788-0.122,1.579-0.254,2.383-0.396
			c1.695-14.72,1.452-36.157-5.086-45.434c-4.753,4.012-10.772,6.239-17.155,6.239s-12.402-2.227-17.155-6.24
			C198.638,56.428,198.396,77.865,200.092,92.585z"/>
		<path style="fill:#333333;" d="M205.885,134.411c-1.933,0-3.773-1.127-4.59-3.014c-6.987-16.124-4.526-33.46-4.418-34.19
			c0.404-2.732,2.946-4.622,5.679-4.213c2.73,0.404,4.616,2.944,4.214,5.673c-0.042,0.298-2.095,15.377,3.701,28.754
			c1.098,2.534-0.066,5.478-2.6,6.576C207.222,134.278,206.548,134.411,205.885,134.411z"/>
		<path style="fill:#333333;" d="M238.769,134.411c-0.663,0-1.338-0.133-1.985-0.414c-2.533-1.098-3.697-4.042-2.6-6.576
			c5.825-13.443,3.722-28.606,3.7-28.757c-0.395-2.73,1.495-5.268,4.224-5.667c2.737-0.4,5.266,1.482,5.67,4.21
			c0.107,0.73,2.569,18.067-4.418,34.19C242.543,133.284,240.702,134.411,238.769,134.411z"/>
		<path style="fill:#333333;" d="M175.787,79.541c-0.332,0-0.667-0.033-1.005-0.102c-2.706-0.552-4.452-3.193-3.899-5.898
			c7.005-34.338,30.227-35.876,31.212-35.925c2.776-0.129,5.104,1.989,5.241,4.748c0.135,2.74-1.962,5.074-4.694,5.238
			c-0.798,0.063-16.6,1.661-21.961,27.938C180.198,77.908,178.114,79.541,175.787,79.541z"/>
		<path style="fill:#333333;" d="M270.257,79.541c-2.327,0-4.41-1.632-4.894-4c-5.392-26.389-21.296-27.89-21.971-27.941
			c-2.758-0.136-4.852-2.481-4.716-5.239s2.474-4.872,5.272-4.746c0.984,0.049,24.196,1.586,31.211,35.923
			c0.553,2.706-1.192,5.347-3.897,5.9C270.925,79.508,270.588,79.541,270.257,79.541z"/>
		<path style="fill:#FFFFFF;" d="M230.217,38.075c-0.33,0-0.66-0.03-0.98-0.1c-0.32-0.06-0.63-0.16-0.93-0.28
			c-0.31-0.13-0.6-0.28-0.87-0.46c-0.27-0.18-0.53-0.39-0.76-0.62c-0.93-0.93-1.46-2.22-1.46-3.54c0-0.32,0.03-0.65,0.1-0.98
			c0.06-0.31,0.16-0.63,0.28-0.93c0.13-0.3,0.28-0.59,0.46-0.86c0.18-0.28,0.39-0.53,0.62-0.76s0.49-0.44,0.76-0.63
			c0.27-0.18,0.56-0.33,0.87-0.45c0.3-0.13,0.61-0.23,0.93-0.29c1.63-0.33,3.35,0.21,4.51,1.37c0.23,0.23,0.44,0.48,0.63,0.76
			c0.17,0.27,0.33,0.56,0.46,0.86c0.12,0.3,0.22,0.62,0.28,0.93c0.07,0.33,0.1,0.66,0.1,0.98c0,0.33-0.029,0.66-0.1,0.98
			c-0.061,0.32-0.16,0.63-0.28,0.93c-0.13,0.31-0.29,0.6-0.46,0.87c-0.189,0.27-0.399,0.53-0.63,0.76
			c-0.229,0.23-0.479,0.44-0.76,0.62c-0.271,0.18-0.561,0.33-0.86,0.46c-0.3,0.12-0.62,0.22-0.93,0.28
			C230.867,38.045,230.537,38.075,230.217,38.075z"/>
		<path style="fill:#FFFFFF;" d="M236.554,91.077c-0.157,0-0.315-0.007-0.476-0.022c-2.749-0.26-4.768-2.699-4.508-5.448
			c1.574-16.674-0.872-27.641-0.896-27.75c-0.616-2.692,1.068-5.373,3.76-5.988c2.691-0.616,5.373,1.067,5.988,3.76
			c0.116,0.508,2.826,12.66,1.104,30.917C241.282,89.136,239.104,91.077,236.554,91.077z"/>
	</g>
	<g>
		<path style="fill:#FCBC1D;" d="M426.484,73.182c-2.762,0-5-2.239-5-5V46.748c0-2.761,2.238-5,5-5s5,2.239,5,5v21.434
			C431.484,70.943,429.246,73.182,426.484,73.182z"/>
		<path style="fill:#FCBC1D;" d="M437.201,62.465h-21.434c-2.762,0-5-2.239-5-5s2.238-5,5-5h21.434c2.762,0,5,2.239,5,5
			S439.963,62.465,437.201,62.465z"/>
	</g>
	<g>
		<path style="fill:#FCBC1D;" d="M37.484,379.182c-2.761,0-5-2.239-5-5v-21.434c0-2.761,2.239-5,5-5s5,2.239,5,5v21.434
			C42.484,376.943,40.245,379.182,37.484,379.182z"/>
		<path style="fill:#FCBC1D;" d="M48.2,368.465H26.767c-2.761,0-5-2.239-5-5s2.239-5,5-5H48.2c2.761,0,5,2.239,5,5
			S50.962,368.465,48.2,368.465z"/>
	</g>
</g>
<g>
</g>
<g>
</g>
<g>
</g>
<g>
</g>
<g>
</g>
<g>
</g>
<g>
</g>
<g>
</g>
<g>
</g>
<g>
</g>
<g>
</g>
<g>
</g>
<g>
</g>
<g>
</g>
<g>
</g>
</svg>
