<?xml version="1.0" encoding="iso-8859-1"?>
<!-- Generator: Adobe Illustrator 18.0.0, SVG Export Plug-In . SVG Version: 6.00 Build 0)  -->
<!DOCTYPE svg PUBLIC "-//W3C//DTD SVG 1.1//EN" "http://www.w3.org/Graphics/SVG/1.1/DTD/svg11.dtd">
<svg version="1.1"  width="78" height= "88" id="Capa_1" xmlns="http://www.w3.org/2000/svg" xmlns:xlink="http://www.w3.org/1999/xlink" x="0px" y="0px"
	 viewBox="0 0 290.588 290.588" style="enable-background:new 0 0 290.588 290.588;" xml:space="preserve">
<g>
	<path fill="#65fbff" d="M37.931,217.346c19.531,9.196,46.794,13.927,72.909,13.927c15.222,0,30.838-1.621,45.098-4.783v-18.786
		c0-10.499,6.198-19.516,15.214-23.543v-4.651c-13.466,5.653-34.133,10.318-60.312,10.318c-48.359,0-77.966-15.914-77.966-24.585
		c0-2.093,1.758-4.609,5.057-7.215c19.531,9.194,46.794,13.927,72.909,13.927c21.565,0,43.931-3.237,62.085-9.542
		c4.895-18.211,19.509-32.471,37.917-36.866l-0.001-19.621c0-7.427-3.122-14.008-8.525-19.715c4.383-4.479,7.376-9.504,8.527-15.078
		l-0.002-24.529C210.84,16.33,159.315,0,110.84,0C62.364,0,10.842,16.33,10.842,46.605l0.023,24.011l0.055,0.517
		c1.146,5.555,4.118,10.566,8.476,15.023c-5.429,5.732-8.553,12.328-8.553,19.77l0.023,24.017l0.055,0.508
		c1.146,5.558,4.118,10.567,8.476,15.032c-5.429,5.726-8.553,12.325-8.553,19.768l0.023,24.007l0.055,0.516
		c1.146,5.559,4.118,10.564,8.476,15.032c-5.429,5.722-8.553,12.319-8.553,19.766l0.023,24.012l0.055,0.508
		c5.624,27.243,54.522,41.498,99.92,41.498c16.624,0,33.726-1.914,49.006-5.675c-2.473-3.959-3.908-8.63-3.908-13.632v-27.422
		c-12.156,3.139-27.359,5.284-45.098,5.284c-48.359,0-77.966-15.914-77.966-24.573C32.874,222.469,34.631,219.962,37.931,217.346z
		 M110.84,22.031c48.362,0,77.968,15.911,77.968,24.572c0,8.664-29.605,24.578-77.968,24.578c-48.359,0-77.966-15.914-77.966-24.578
		C32.874,37.942,62.48,22.031,110.84,22.031z M37.931,98.703c19.531,9.198,46.794,13.925,72.909,13.925
		c26.096,0,53.381-4.72,72.931-13.906c3.283,2.605,5.037,5.116,5.037,7.204c0,8.663-29.605,24.574-77.968,24.574
		c-48.359,0-77.966-15.911-77.966-24.574C32.874,103.832,34.631,101.317,37.931,98.703z"/>
	<path fill="#65fbff" d="M264.532,191.926v-16.109c0-22.988-18.702-41.691-41.69-41.691c-22.988,0-41.69,18.703-41.69,41.691v16.109
		c-8.453,0.314-15.214,7.246-15.214,15.777v63.578c0,8.73,7.077,15.807,15.807,15.807h82.195c8.73,0,15.807-7.076,15.807-15.807
		v-63.578C279.746,199.172,272.985,192.24,264.532,191.926z M228.374,251.522v14.445c0,3.057-2.477,5.532-5.532,5.532
		c-3.056,0-5.532-2.476-5.532-5.532v-14.445c-3.151-1.886-5.269-5.325-5.269-9.265c0-5.965,4.836-10.801,10.801-10.801
		c5.966,0,10.801,4.836,10.801,10.801C233.643,246.197,231.526,249.637,228.374,251.522z M243.983,191.895H201.7v-16.079
		c0-11.658,9.484-21.143,21.142-21.143c11.657,0,21.142,9.484,21.142,21.143V191.895z"/>
</g>
<g>
</g>
<g>
</g>
<g>
</g>
<g>
</g>
<g>
</g>
<g>
</g>
<g>
</g>
<g>
</g>
<g>
</g>
<g>
</g>
<g>
</g>
<g>
</g>
<g>
</g>
<g>
</g>
<g>
</g>
</svg>
